<svg xmlns="http://www.w3.org/2000/svg" viewBox="0 0 960 540" width="960" height="540">
<defs>
<linearGradient id="bg" x1="0" y1="0" x2="1" y2="1"><stop offset="0" stop-color="#f7d5d5"/><stop offset="1" stop-color="#7a3550"/></linearGradient>
<linearGradient id="s" x1="0" y1="0" x2="1" y2="1"><stop offset="0" stop-color="#ffb0c4"/><stop offset="1" stop-color="#ffc98d"/></linearGradient>
</defs>
<rect width="960" height="540" fill="url(#bg)"/><ellipse cx="498.0" cy="270.0" rx="40.0" ry="16.8" transform="rotate(0.0 498.0 270.0)" fill="none" stroke="url(#s)" stroke-width="7.2" opacity="0.64"/><ellipse cx="499.1" cy="272.8" rx="45.6" ry="19.1" transform="rotate(12.4 499.1 272.8)" fill="none" stroke="url(#s)" stroke-width="7.1" opacity="0.63"/><ellipse cx="499.2" cy="275.9" rx="51.1" ry="21.5" transform="rotate(24.8 499.2 275.9)" fill="none" stroke="url(#s)" stroke-width="7.0" opacity="0.62"/><ellipse cx="498.1" cy="279.1" rx="56.7" ry="23.8" transform="rotate(37.2 498.1 279.1)" fill="none" stroke="url(#s)" stroke-width="6.9" opacity="0.61"/><ellipse cx="495.7" cy="282.3" rx="62.2" ry="26.1" transform="rotate(49.6 495.7 282.3)" fill="none" stroke="url(#s)" stroke-width="6.8" opacity="0.60"/><ellipse cx="492.1" cy="285.1" rx="67.8" ry="28.5" transform="rotate(62.0 492.1 285.1)" fill="none" stroke="url(#s)" stroke-width="6.6" opacity="0.58"/><ellipse cx="487.4" cy="287.5" rx="73.3" ry="30.8" transform="rotate(74.4 487.4 287.5)" fill="none" stroke="url(#s)" stroke-width="6.5" opacity="0.57"/><ellipse cx="481.6" cy="289.1" rx="78.9" ry="33.1" transform="rotate(86.8 481.6 289.1)" fill="none" stroke="url(#s)" stroke-width="6.4" opacity="0.56"/><ellipse cx="475.1" cy="289.9" rx="84.4" ry="35.5" transform="rotate(99.2 475.1 289.9)" fill="none" stroke="url(#s)" stroke-width="6.3" opacity="0.55"/><ellipse cx="468.2" cy="289.7" rx="90.0" ry="37.8" transform="rotate(111.6 468.2 289.7)" fill="none" stroke="url(#s)" stroke-width="6.2" opacity="0.54"/><ellipse cx="461.2" cy="288.4" rx="95.6" ry="40.1" transform="rotate(124.0 461.2 288.4)" fill="none" stroke="url(#s)" stroke-width="6.1" opacity="0.53"/><ellipse cx="454.6" cy="286.0" rx="101.1" ry="42.5" transform="rotate(136.4 454.6 286.0)" fill="none" stroke="url(#s)" stroke-width="6.0" opacity="0.52"/><ellipse cx="448.6" cy="282.6" rx="106.7" ry="44.8" transform="rotate(148.8 448.6 282.6)" fill="none" stroke="url(#s)" stroke-width="5.9" opacity="0.51"/><ellipse cx="443.8" cy="278.1" rx="112.2" ry="47.1" transform="rotate(161.2 443.8 278.1)" fill="none" stroke="url(#s)" stroke-width="5.8" opacity="0.50"/><ellipse cx="440.5" cy="272.9" rx="117.8" ry="49.5" transform="rotate(173.6 440.5 272.9)" fill="none" stroke="url(#s)" stroke-width="5.6" opacity="0.48"/><ellipse cx="438.9" cy="267.1" rx="123.3" ry="51.8" transform="rotate(186.0 438.9 267.1)" fill="none" stroke="url(#s)" stroke-width="5.5" opacity="0.47"/><ellipse cx="439.3" cy="261.0" rx="128.9" ry="54.1" transform="rotate(198.4 439.3 261.0)" fill="none" stroke="url(#s)" stroke-width="5.4" opacity="0.46"/><ellipse cx="441.8" cy="255.0" rx="134.4" ry="56.5" transform="rotate(210.8 441.8 255.0)" fill="none" stroke="url(#s)" stroke-width="5.3" opacity="0.45"/><ellipse cx="446.5" cy="249.2" rx="140.0" ry="58.8" transform="rotate(223.2 446.5 249.2)" fill="none" stroke="url(#s)" stroke-width="5.2" opacity="0.44"/><ellipse cx="453.1" cy="244.1" rx="145.6" ry="61.1" transform="rotate(235.6 453.1 244.1)" fill="none" stroke="url(#s)" stroke-width="5.1" opacity="0.43"/><ellipse cx="461.6" cy="239.9" rx="151.1" ry="63.5" transform="rotate(248.0 461.6 239.9)" fill="none" stroke="url(#s)" stroke-width="5.0" opacity="0.42"/><ellipse cx="471.6" cy="237.0" rx="156.7" ry="65.8" transform="rotate(260.4 471.6 237.0)" fill="none" stroke="url(#s)" stroke-width="4.9" opacity="0.41"/><ellipse cx="482.6" cy="235.6" rx="162.2" ry="68.1" transform="rotate(272.8 482.6 235.6)" fill="none" stroke="url(#s)" stroke-width="4.8" opacity="0.40"/><ellipse cx="494.1" cy="235.7" rx="167.8" ry="70.5" transform="rotate(285.2 494.1 235.7)" fill="none" stroke="url(#s)" stroke-width="4.6" opacity="0.38"/><ellipse cx="505.6" cy="237.6" rx="173.3" ry="72.8" transform="rotate(297.6 505.6 237.6)" fill="none" stroke="url(#s)" stroke-width="4.5" opacity="0.37"/><ellipse cx="516.6" cy="241.2" rx="178.9" ry="75.1" transform="rotate(310.0 516.6 241.2)" fill="none" stroke="url(#s)" stroke-width="4.4" opacity="0.36"/><ellipse cx="526.3" cy="246.5" rx="184.4" ry="77.5" transform="rotate(322.4 526.3 246.5)" fill="none" stroke="url(#s)" stroke-width="4.3" opacity="0.35"/><ellipse cx="534.3" cy="253.1" rx="190.0" ry="79.8" transform="rotate(334.8 534.3 253.1)" fill="none" stroke="url(#s)" stroke-width="4.2" opacity="0.34"/><ellipse cx="540.0" cy="261.0" rx="195.6" ry="82.1" transform="rotate(347.2 540.0 261.0)" fill="none" stroke="url(#s)" stroke-width="4.1" opacity="0.33"/><ellipse cx="543.1" cy="269.7" rx="201.1" ry="84.5" transform="rotate(359.6 543.1 269.7)" fill="none" stroke="url(#s)" stroke-width="4.0" opacity="0.32"/><ellipse cx="543.3" cy="278.9" rx="206.7" ry="86.8" transform="rotate(372.0 543.3 278.9)" fill="none" stroke="url(#s)" stroke-width="3.9" opacity="0.31"/><ellipse cx="540.3" cy="288.0" rx="212.2" ry="89.1" transform="rotate(384.4 540.3 288.0)" fill="none" stroke="url(#s)" stroke-width="3.8" opacity="0.30"/><ellipse cx="534.3" cy="296.8" rx="217.8" ry="91.5" transform="rotate(396.8 534.3 296.8)" fill="none" stroke="url(#s)" stroke-width="3.6" opacity="0.28"/><ellipse cx="525.3" cy="304.6" rx="223.3" ry="93.8" transform="rotate(409.2 525.3 304.6)" fill="none" stroke="url(#s)" stroke-width="3.5" opacity="0.27"/><ellipse cx="513.7" cy="311.1" rx="228.9" ry="96.1" transform="rotate(421.6 513.7 311.1)" fill="none" stroke="url(#s)" stroke-width="3.4" opacity="0.26"/><ellipse cx="500.0" cy="315.9" rx="234.4" ry="98.5" transform="rotate(434.0 500.0 315.9)" fill="none" stroke="url(#s)" stroke-width="3.3" opacity="0.25"/><ellipse cx="484.6" cy="318.7" rx="240.0" ry="100.8" transform="rotate(446.4 484.6 318.7)" fill="none" stroke="url(#s)" stroke-width="3.2" opacity="0.24"/><ellipse cx="468.4" cy="319.2" rx="245.6" ry="103.1" transform="rotate(458.8 468.4 319.2)" fill="none" stroke="url(#s)" stroke-width="3.1" opacity="0.23"/><ellipse cx="452.1" cy="317.4" rx="251.1" ry="105.5" transform="rotate(471.2 452.1 317.4)" fill="none" stroke="url(#s)" stroke-width="3.0" opacity="0.22"/><ellipse cx="436.5" cy="313.2" rx="256.7" ry="107.8" transform="rotate(483.6 436.5 313.2)" fill="none" stroke="url(#s)" stroke-width="2.9" opacity="0.21"/><ellipse cx="422.3" cy="306.7" rx="262.2" ry="110.1" transform="rotate(496.0 422.3 306.7)" fill="none" stroke="url(#s)" stroke-width="2.8" opacity="0.20"/><ellipse cx="410.3" cy="298.2" rx="267.8" ry="112.5" transform="rotate(508.4 410.3 298.2)" fill="none" stroke="url(#s)" stroke-width="2.6" opacity="0.18"/><ellipse cx="401.3" cy="288.1" rx="273.3" ry="114.8" transform="rotate(520.8 401.3 288.1)" fill="none" stroke="url(#s)" stroke-width="2.5" opacity="0.17"/><ellipse cx="395.7" cy="276.6" rx="278.9" ry="117.1" transform="rotate(533.2 395.7 276.6)" fill="none" stroke="url(#s)" stroke-width="2.4" opacity="0.16"/><ellipse cx="394.0" cy="264.4" rx="284.4" ry="119.5" transform="rotate(545.6 394.0 264.4)" fill="none" stroke="url(#s)" stroke-width="2.3" opacity="0.15"/><ellipse cx="396.3" cy="252.1" rx="290.0" ry="121.8" transform="rotate(558.0 396.3 252.1)" fill="none" stroke="url(#s)" stroke-width="2.2" opacity="0.14"/><filter id="g"><feTurbulence type="fractalNoise" baseFrequency="0.9" numOctaves="3" stitchTiles="stitch"/><feColorMatrix type="saturate" values="0"/></filter><rect width="100%" height="100%" filter="url(#g)" opacity="0.10"/></svg>